<?xml version="1.0" encoding="UTF-8"?>
<svg width="75px" height="66px" viewBox="0 0 75 66" version="1.1" xmlns="http://www.w3.org/2000/svg" xmlns:xlink="http://www.w3.org/1999/xlink">
    <title>headphone_n</title>
    <g id="headphone_n" stroke="none" stroke-width="1" fill="none" fill-rule="evenodd">
        <path d="M48,8 C54.5254567,8 59.8343928,13.2085444 59.9962001,19.6950252 L60,20 L60,32 L64,32 C69.5228475,32 74,36.4771525 74,42 L74,48 C74,53.5228475 69.5228475,58 64,58 L56,58 L56,20 C56,15.6650857 52.5521622,12.1354571 48.2491793,12.0038068 L48,12 L27,12 C22.6650857,12 19.1354571,15.4478378 19.0038068,19.7508207 L19,20 L19,58 L11,58 C5.4771525,58 1,53.5228475 1,48 L1,42 C1,36.4771525 5.4771525,32 11,32 L15,32 L15,20 C15,13.4745433 20.2085444,8.16560725 26.6950252,8.00379986 L27,8 L48,8 Z" id="Path" fill="#7F7F7F" fill-rule="nonzero"></path>
    </g>
</svg>